<svg width="854" height="17" viewBox="0 0 854 17" fill="none" xmlns="http://www.w3.org/2000/svg">
<g filter="url(#filter0_f_25_884)">
<path d="M4 8.60013C15.1785 12.0446 26.5163 12.2742 71.2303 12.7335C132.968 12.7335 719.584 9.51865 850 8.60013C723.31 7.45198 132.968 4.4668 71.2303 4.4668C26.5163 4.4668 11.4523 5.84458 4 8.60013Z" fill="white"/>
<path d="M71.2329 12.2335C124.956 12.2334 575.962 9.80001 778.179 8.56256C577.126 7.21819 124.844 4.9668 71.2303 4.9668C48.8755 4.9668 33.9448 5.31129 23.6754 5.99901C14.7045 6.59978 9.32062 7.46108 5.66547 8.56941C16.3302 11.5613 28.5165 11.7947 71.2329 12.2335Z" stroke="#BE7CFF" stroke-opacity="0.49"/>
</g>
<defs>
<filter id="filter0_f_25_884" x="0" y="0.466797" width="854" height="16.2666" filterUnits="userSpaceOnUse" color-interpolation-filters="sRGB">
<feFlood flood-opacity="0" result="BackgroundImageFix"/>
<feBlend mode="normal" in="SourceGraphic" in2="BackgroundImageFix" result="shape"/>
<feGaussianBlur stdDeviation="2" result="effect1_foregroundBlur_25_884"/>
</filter>
</defs>
</svg>
